<svg width="32" height="32" viewBox="0 0 32 32" fill="none" xmlns="http://www.w3.org/2000/svg">
<path d="M21.4131 13.5136L23.747 5.14056H27.9207L26.0432 11.8768H31.0181L30.2325 14.6959H22.3134C21.4934 14.6959 21.1936 14.3021 21.4131 13.5136Z" fill="#FFCB00"/>
<path d="M10.8389 11.2787C9.72722 11.7529 7.93073 12.1153 6.70687 12.0877C4.84157 12.0467 3.53906 11.4843 3.51858 11.1165C3.50547 10.8999 3.71273 10.7061 3.9593 10.7203C4.14116 10.7305 4.31074 10.8487 4.45082 10.8967C5.483 11.3362 6.72407 11.4725 8.00692 11.2882C10.8217 10.7801 11.6982 9.56081 11.9382 8.32809C12.383 6.03515 10.4375 4.72996 8.19697 4.83314C5.08569 4.97414 2.37745 6.7866 1.36985 9.779C0.192671 13.1046 2.09073 15.0092 5.23478 15.0092C7.91927 15.0092 9.38398 14.4555 10.009 14.2578L10.8397 11.2795L10.8389 11.2787ZM8.13144 8.1359C7.9078 8.93776 7.61862 9.58681 7.05912 9.58681C6.49961 9.58681 6.57252 8.93697 6.79534 8.1359C7.01898 7.33403 7.31143 6.6842 7.86766 6.6842C8.42389 6.6842 8.35425 7.33403 8.13144 8.1359Z" fill="#FFCB00"/>
<path d="M17.0346 11.8776H20.9692L20.1836 14.6967H11.8156C10.7932 14.6967 10.6081 14.028 11.4035 13.2104L16.652 7.81711H12.9223L13.6677 5.14136H21.7327C22.755 5.14136 22.9401 5.8101 22.1447 6.62771L17.0346 11.8776Z" fill="#FFCB00"/>
<path d="M4.13571 25.436H7.09552V26.8099H2.33386V18.1726H4.13571V25.436Z" fill="#FFCB00"/>
<path d="M7.87417 21.5129C8.16146 20.9762 8.55206 20.5642 9.04474 20.2759C9.53741 19.9875 10.0893 19.8434 10.6979 19.8434C11.2296 19.8434 11.6958 19.9463 12.094 20.1523C12.4934 20.3583 12.8122 20.6188 13.0529 20.9313V19.9536H14.8673V26.8087H13.0529V25.8067C12.821 26.129 12.501 26.3943 12.094 26.6051C11.687 26.8159 11.217 26.9201 10.6853 26.9201C10.0843 26.9201 9.53741 26.7711 9.04474 26.4743C8.5508 26.1774 8.16146 25.7582 7.87417 25.2179C7.58688 24.6775 7.44324 24.0572 7.44324 23.3557C7.44324 22.6542 7.58688 22.0484 7.87417 21.5117V21.5129ZM12.7971 22.2992C12.6257 21.9987 12.3939 21.7673 12.1028 21.6062C11.8105 21.445 11.498 21.3651 11.1628 21.3651C10.8277 21.3651 10.519 21.4438 10.2367 21.6001C9.95322 21.7564 9.72389 21.9854 9.54875 22.2871C9.37234 22.5888 9.2854 22.945 9.2854 23.3569C9.2854 23.7688 9.3736 24.1299 9.54875 24.44C9.72389 24.749 9.95574 24.9865 10.243 25.1512C10.5303 25.316 10.8365 25.3984 11.1628 25.3984C11.4892 25.3984 11.8105 25.3184 12.1028 25.1573C12.3939 24.9962 12.6257 24.766 12.7971 24.4643C12.9685 24.1638 13.0542 23.8028 13.0542 23.3811C13.0542 22.9595 12.9685 22.5997 12.7971 22.298V22.2992Z" fill="#FFCB00"/>
<path d="M19.057 20.1523C19.464 19.9463 19.9302 19.8433 20.4531 19.8433C21.0617 19.8433 21.6136 19.9875 22.1063 20.2759C22.5989 20.5642 22.9896 20.975 23.2768 21.5068C23.5641 22.0387 23.7078 22.6554 23.7078 23.3569C23.7078 24.0584 23.5641 24.6787 23.2768 25.2191C22.9896 25.7594 22.5989 26.1786 22.1063 26.4755C21.6123 26.7723 21.0617 26.9213 20.4531 26.9213C19.9214 26.9213 19.4552 26.8208 19.057 26.6184C18.6576 26.4161 18.3388 26.1544 18.0981 25.8321V26.8099H16.2963V17.6528H18.0981V20.9568C18.33 20.6272 18.6487 20.3583 19.057 20.1523ZM21.606 22.2871C21.4296 21.9866 21.199 21.7576 20.9118 21.6001C20.6245 21.4438 20.3132 21.3651 19.9793 21.3651C19.6454 21.3651 19.3468 21.445 19.0595 21.6062C18.7722 21.7673 18.5404 21.9999 18.3652 22.3053C18.1888 22.6106 18.1019 22.9692 18.1019 23.3823C18.1019 23.7955 18.1901 24.1541 18.3652 24.4594C18.5404 24.7647 18.7722 24.9974 19.0595 25.1585C19.3468 25.3196 19.653 25.3996 19.9793 25.3996C20.3057 25.3996 20.6245 25.3172 20.9118 25.1524C21.199 24.9877 21.4309 24.7526 21.606 24.4473C21.7824 24.142 21.8694 23.7797 21.8694 23.3581C21.8694 22.9365 21.7812 22.5888 21.606 22.2883V22.2871Z" fill="#FFCB00"/>
<path d="M25.8459 26.6172C25.3822 26.4149 25.0155 26.1411 24.7459 25.7946C24.4763 25.4481 24.3276 25.064 24.3024 24.6436H26.1168C26.1508 24.9077 26.2857 25.1258 26.5225 25.2991C26.7582 25.4723 27.0518 25.5583 27.4046 25.5583C27.7574 25.5583 28.0157 25.4929 28.2085 25.3608C28.4013 25.2288 28.4983 25.0604 28.4983 24.8532C28.4983 24.6303 28.3798 24.4631 28.1442 24.3516C27.9086 24.2401 27.5331 24.119 27.0177 23.9869C26.486 23.8633 26.05 23.7349 25.7111 23.6029C25.3721 23.4708 25.0811 23.2685 24.8366 22.9971C24.5922 22.7245 24.47 22.3574 24.47 21.8958C24.47 21.5165 24.5834 21.17 24.8114 20.8562C25.0382 20.5424 25.3646 20.2953 25.7892 20.1135C26.2138 19.9318 26.7141 19.8409 27.2886 19.8409C28.1379 19.8409 28.8158 20.0445 29.3223 20.454C29.8289 20.8623 30.1073 21.4136 30.159 22.1054H28.434C28.4088 21.8328 28.2904 21.6171 28.0799 21.456C27.8695 21.2948 27.5885 21.2149 27.237 21.2149C26.9106 21.2149 26.6599 21.273 26.4835 21.3881C26.3071 21.5032 26.2201 21.6644 26.2201 21.8703C26.2201 22.1017 26.3398 22.2762 26.5805 22.3961C26.8199 22.5161 27.1941 22.6372 27.7007 22.7608C28.2148 22.8844 28.6407 23.0128 28.9746 23.1449C29.3085 23.277 29.5983 23.4817 29.8427 23.7579C30.0872 24.0342 30.2132 24.3989 30.222 24.8532C30.222 25.2494 30.1086 25.6044 29.8805 25.917C29.6525 26.2308 29.3274 26.4755 28.9027 26.6536C28.4781 26.8305 27.9829 26.9201 27.4159 26.9201C26.8489 26.9201 26.3096 26.8196 25.8459 26.6172Z" fill="#FFCB00"/>
</svg>
